<svg width="48" height="48" viewBox="0 0 48 48" fill="none" xmlns="http://www.w3.org/2000/svg">
<path d="M23.9999 37C20.552 37 17.2454 35.6303 14.8075 33.1923C12.3695 30.7544 10.9999 27.4478 10.9999 24C10.9999 20.5521 12.3695 17.2455 14.8075 14.8076C17.2454 12.3696 20.552 11 23.9999 11C27.4477 11 30.7543 12.3696 33.1923 14.8076C35.6302 17.2455 36.9999 20.5521 36.9999 24C36.9999 27.4478 35.6302 30.7544 33.1923 33.1923C30.7543 35.6303 27.4477 37 23.9999 37ZM21.8332 0.166626H26.1665V6.66663H21.8332V0.166626ZM21.8332 41.3333H26.1665V47.8333H21.8332V41.3333ZM5.6157 8.67946L8.67937 5.61579L13.2749 10.2113L10.2112 13.275L5.6157 8.68162V8.67946ZM34.7249 37.7886L37.7885 34.725L42.384 39.3204L39.3204 42.3841L34.7249 37.7886ZM39.3204 5.61363L42.384 8.67946L37.7885 13.275L34.7249 10.2113L39.3204 5.61579V5.61363ZM10.2112 34.725L13.2749 37.7886L8.67937 42.3841L5.6157 39.3204L10.2112 34.725ZM47.8332 21.8333V26.1666H41.3332V21.8333H47.8332ZM6.66653 21.8333V26.1666H0.166534V21.8333H6.66653Z" fill="url(#paint0_linear_150_432)"/>
<defs>
<linearGradient id="paint0_linear_150_432" x1="23.9999" y1="0.166626" x2="23.9999" y2="47.8333" gradientUnits="userSpaceOnUse">
<stop stop-color="#FFDE67"/>
<stop offset="1" stop-color="#EB6402"/>
</linearGradient>
</defs>
</svg>
